# xmcd
#
# Track frame offsets: 
#        150
#        15237
#        32364
#        48350
#        59622
#        76033
#        89915
#        101767
#        118930
#        135168
#        148025
#        167168
#        185557
#        198539
#        210010
#        224618
#        238553
#        250880
#        267933
#        283873
#        300675
#
# Disc length: 4236 seconds
#
# Revision: 0
# Processed by: cddbd v1.5.1PL2 Copyright (c) Steve Scherf et al.
# Submitted via: ExactAudioCopy v0.95b3
#
DISCID=2e108a15
DTITLE=Various Artist - CD-TEX VOL.36 - Sept.2005
DYEAR=2005
DGENRE=Country
TTITLE0=Chris Brade - Run And Tell Dr.Phil
TTITLE1=Jon Christover Davis - Folsom Prison Blues
TTITLE2=Glenna Bell - Hoping I Could Be Wrong
TTITLE3=Eric Neznik -  Where She Used To Be
TTITLE4=Pauline Reese - Yellow Wine
TTITLE5=Sonny Burgess - Jesus And Bartenders
TTITLE6=The Turfers - Wipeout 2005
TTITLE7=Kevin Deal - I´ve Got To Believe
TTITLE8=Seth Tyler - Get A Nightlife
TTITLE9=Leo Stokes - She No Longer Loves Me
TTITLE10=Tommy Alverson - I Feel Like Drinkin´ Today
TTITLE11=Tobias Rene - Mexico
TTITLE12=Michael O´Neill - Tell Her
TTITLE13=Todd Fritsch - I Got Mexico
TTITLE14=Jeremiah Houston - Southern Boy
TTITLE15=Zane Lewis - This Town
TTITLE16=Rex Robarts - A Long Way From Abilene
TTITLE17=Dr.Bruce - Haunted House
TTITLE18=Mark Miller - The High Life
TTITLE19=Tom Faulkner - Chulatown
TTITLE20=Darrel Cole - Rednecks On Parade
EXTD=
EXTT0=
EXTT1=
EXTT2=
EXTT3=
EXTT4=
EXTT5=
EXTT6=
EXTT7=
EXTT8=
EXTT9=
EXTT10=
EXTT11=
EXTT12=
EXTT13=
EXTT14=
EXTT15=
EXTT16=
EXTT17=
EXTT18=
EXTT19=
EXTT20=
PLAYORDER=
